<svg xmlns="http://www.w3.org/2000/svg" viewBox="0 0 800 480" width="800" height="480">
  <defs>
    <!-- Horizontal gradient for dithering test -->
    <linearGradient id="hGradient" x1="0%" y1="0%" x2="100%" y2="0%">
      <stop offset="0%" style="stop-color:rgb(0,0,0)"/>
      <stop offset="100%" style="stop-color:rgb(255,255,255)"/>
    </linearGradient>
    <!-- Vertical gradient -->
    <linearGradient id="vGradient" x1="0%" y1="0%" x2="0%" y2="100%">
      <stop offset="0%" style="stop-color:rgb(0,0,0)"/>
      <stop offset="100%" style="stop-color:rgb(255,255,255)"/>
    </linearGradient>
  </defs>

  <!-- Background -->
  <rect width="800" height="480" fill="rgb(170,170,170)"/>

  <!-- Top section: 4 gray level bars -->
  <rect x="0" y="0" width="200" height="280" fill="rgb(255,255,255)"/>
  <rect x="200" y="0" width="200" height="280" fill="rgb(170,170,170)"/>
  <rect x="400" y="0" width="200" height="280" fill="rgb(85,85,85)"/>
  <rect x="600" y="0" width="200" height="280" fill="rgb(0,0,0)"/>

  <!-- Labels on bars -->
  <text x="100" y="140" text-anchor="middle" fill="black" font-family="Outfit" font-size="20" font-weight="600">WHITE</text>
  <text x="100" y="165" text-anchor="middle" fill="black" font-family="Outfit" font-size="16">255</text>

  <text x="300" y="140" text-anchor="middle" fill="black" font-family="Outfit" font-size="20" font-weight="600">LIGHT</text>
  <text x="300" y="165" text-anchor="middle" fill="black" font-family="Outfit" font-size="16">170</text>

  <text x="500" y="140" text-anchor="middle" fill="white" font-family="Outfit" font-size="20" font-weight="600">DARK</text>
  <text x="500" y="165" text-anchor="middle" fill="white" font-family="Outfit" font-size="16">85</text>

  <text x="700" y="140" text-anchor="middle" fill="white" font-family="Outfit" font-size="20" font-weight="600">BLACK</text>
  <text x="700" y="165" text-anchor="middle" fill="white" font-family="Outfit" font-size="16">0</text>

  <!-- Center circle pattern on bars -->
  <circle cx="100" cy="220" r="40" fill="none" stroke="black" stroke-width="3"/>
  <circle cx="300" cy="220" r="40" fill="none" stroke="black" stroke-width="3"/>
  <circle cx="500" cy="220" r="40" fill="none" stroke="white" stroke-width="3"/>
  <circle cx="700" cy="220" r="40" fill="none" stroke="white" stroke-width="3"/>

  <!-- Crosshairs in circles -->
  <line x1="60" y1="220" x2="140" y2="220" stroke="black" stroke-width="1"/>
  <line x1="100" y1="180" x2="100" y2="260" stroke="black" stroke-width="1"/>
  <line x1="260" y1="220" x2="340" y2="220" stroke="black" stroke-width="1"/>
  <line x1="300" y1="180" x2="300" y2="260" stroke="black" stroke-width="1"/>
  <line x1="460" y1="220" x2="540" y2="220" stroke="white" stroke-width="1"/>
  <line x1="500" y1="180" x2="500" y2="260" stroke="white" stroke-width="1"/>
  <line x1="660" y1="220" x2="740" y2="220" stroke="white" stroke-width="1"/>
  <line x1="700" y1="180" x2="700" y2="260" stroke="white" stroke-width="1"/>

  <!-- Bottom section: Horizontal gradient for dithering demo -->
  <rect x="0" y="280" width="800" height="60" fill="url(#hGradient)"/>
  <text x="400" y="320" text-anchor="middle" fill="white" font-family="Outfit" font-size="14" font-weight="600"
        style="text-shadow: 1px 1px 0 black, -1px -1px 0 black, 1px -1px 0 black, -1px 1px 0 black;">
    HORIZONTAL GRADIENT (DITHERING TEST)
  </text>

  <!-- Alternating black/white bars for resolution test -->
  <g>
    <rect x="0" y="340" width="10" height="40" fill="black"/>
    <rect x="10" y="340" width="10" height="40" fill="white"/>
    <rect x="20" y="340" width="10" height="40" fill="black"/>
    <rect x="30" y="340" width="10" height="40" fill="white"/>
    <rect x="40" y="340" width="10" height="40" fill="black"/>
    <rect x="50" y="340" width="10" height="40" fill="white"/>
    <rect x="60" y="340" width="10" height="40" fill="black"/>
    <rect x="70" y="340" width="10" height="40" fill="white"/>
    <rect x="80" y="340" width="20" height="40" fill="black"/>
    <rect x="100" y="340" width="20" height="40" fill="white"/>
    <rect x="120" y="340" width="20" height="40" fill="black"/>
    <rect x="140" y="340" width="20" height="40" fill="white"/>
  </g>

  <!-- Vertical gradient strip -->
  <rect x="160" y="340" width="60" height="140" fill="url(#vGradient)"/>

  <!-- Step wedge -->
  <rect x="220" y="340" width="116" height="40" fill="rgb(0,0,0)"/>
  <rect x="336" y="340" width="116" height="40" fill="rgb(85,85,85)"/>
  <rect x="452" y="340" width="116" height="40" fill="rgb(170,170,170)"/>
  <rect x="568" y="340" width="116" height="40" fill="rgb(255,255,255)" stroke="rgb(170,170,170)"/>
  <rect x="684" y="340" width="116" height="40" fill="rgb(170,170,170)"/>

  <!-- Bottom info bar -->
  <rect x="0" y="380" width="800" height="100" fill="rgb(0,0,0)"/>

  <!-- Byonk branding -->
  <text x="400" y="420" text-anchor="middle" fill="white" font-family="Outfit" font-size="28" font-weight="700">BYONK E-INK TEST PATTERN</text>
  <text x="400" y="455" text-anchor="middle" fill="rgb(170,170,170)" font-family="Outfit" font-size="16">800 x 480 | 4 Gray Levels | Floyd-Steinberg Dithering</text>

  <!-- Corner markers -->
  <rect x="0" y="380" width="40" height="40" fill="white"/>
  <rect x="760" y="380" width="40" height="40" fill="white"/>
  <rect x="0" y="440" width="40" height="40" fill="white"/>
  <rect x="760" y="440" width="40" height="40" fill="white"/>
</svg>
